Genre:Drama
Language:English  http://www.imdb.com/title/tt1447972/
Source Video:RUS
Source Audio:DVDScr

General
Complete name :StreetDance.3D.DvDRip.XviD.Ac3.Feel-Free
Format : AVI
Format/Info : Audio Video Interleave
Format profile : OpenDML
File size : 2.10 GiB
Duration : 1h 38mn
Overall bit rate : 3 049 Kbps
Video #0
Muxing mode : Packed bitstream
Codec ID : XVID
Codec ID/Hint : XviD
Duration : 1h 38mn
Bit rate : 2 589 Kbps
Width : 652 pixels
Height : 352 pixels
Display aspect ratio : 1.852
Frame rate : 23.976 fps
Resolution : 24 bits
Colorimetry : 4:2:0
Scan type : Progressive
Bits/(Pixel*Frame) : 0.470
Stream size : 1.78 GiB (85%)
Writing library : XviD 1.2.1 (UTC 2008-12-04)
Audio #1
ID : 1
Format : AC-3
Format/Info : Audio Coding 3
Codec ID : 2000
Duration : 1h 38mn
Bit rate mode : Constant
Bit rate : 448 Kbps
Channel(s) : 6 channels
Channel positions : Front: L C R, Surround: L R, LFE
Sampling rate : 48.0 KHz
Stream size : 315 MiB (15%)
Alignment : Split accross interleaves
Interleave, duration : 42 ms (1.00 video frame)
Interleave, preload duration : 500 ms

Plot
In order to win the Street Dance Championships, a dance crew is forced to work with ballet dancers from the Royal Dance School in exchange for rehearsal space